# xmcd
#
# Track frame offsets:
#	150
#	23446
#	45122
#	74073
#	103647
#	159284
#	179295
#	197999
#	232976
#	261090
#	280221
#	308290
#	326976
#
# Disc length: 4734
#
# Revision: 2
# Processed by: cddbd v1.5.1PL0 Copyright (c) Steve Scherf et al.
# Submitted via: CedeCatalogueitor 2.5 http://usuarios.lycos.es/kakasboy
# Normalized: r1:TDELIM( - )
#
DISCID=a6127c0d
DTITLE=Anthology - Volumen 9
DYEAR=2002
DGENRE=
TTITLE0=Peter Green, Asley Dunbar, Rod Stewart - History Of Blues
TTITLE1=Cuby and The Blizzards - The King Of The World
TTITLE2=Mick Abrahams - Black Night
TTITLE3=Mick Taylor - Blues In The Morning
TTITLE4=Elvin Bishop, M Bloomfield and Al kooper - No More Lonely Nights
TTITLE5=Paul Butterfield  Band - Harmonic Classics
TTITLE6=Jethro Tull - Stormy Monday
TTITLE7=Mike Bloomfield - Blues Medley Sweet Little Angel
TTITLE8=Joe Cocker - St.. James Infirmary Blues
TTITLE9=Cuby and The Blizzards - Five Long Years
TTITLE10=The Guess Who - Humptys Blues
TTITLE11=Humble Pie - I Believe To My Soul
TTITLE12=Leslie West - Red House
EXTD=
EXTT0=
EXTT1=
EXTT2=
EXTT3=
EXTT4=
EXTT5=
EXTT6=
EXTT7=
EXTT8=
EXTT9=
EXTT10=
EXTT11=
EXTT12=
PLAYORDER=
